<?xml version="1.0" standalone="no"?>
<!DOCTYPE svg PUBLIC "-//W3C//DTD SVG 20010904//EN"
 "http://www.w3.org/TR/2001/REC-SVG-20010904/DTD/svg10.dtd">
<svg version="1.0" xmlns="http://www.w3.org/2000/svg"
 width="134.000000pt" height="139.000000pt" viewBox="0 0 134.000000 139.000000"
 preserveAspectRatio="xMidYMid meet">

<g transform="translate(0.000000,139.000000) scale(0.100000,-0.100000)"
fill="#000000" stroke="none">
<path d="M633 1200 c-27 -11 -43 -40 -43 -77 0 -24 -7 -31 -55 -52 -63 -27
-127 -91 -158 -159 -19 -42 -22 -68 -25 -243 l-4 -196 -49 -49 c-35 -35 -49
-56 -49 -76 l0 -28 159 0 160 0 -6 -33 c-6 -39 17 -91 46 -107 25 -13 87 -13
112 0 29 16 52 68 46 107 l-6 33 160 0 159 0 0 28 c0 20 -14 41 -49 76 l-49
49 -4 196 c-3 175 -6 201 -25 243 -31 68 -95 132 -158 159 -49 22 -55 27 -55
55 0 57 -56 95 -107 74z m90 -211 c48 -13 113 -71 133 -117 11 -26 14 -83 14
-238 l0 -204 -205 0 -205 0 0 204 c0 226 4 248 63 304 57 55 125 72 200 51z"/>
<path d="M292 1152 c-69 -70 -130 -194 -140 -285 -5 -37 -6 -69 -4 -72 3 -3
26 -5 52 -5 l47 0 6 56 c7 72 52 166 110 230 l45 50 -32 39 -33 39 -51 -52z"/>
<path d="M952 1163 l-30 -38 46 -50 c57 -63 102 -157 109 -229 l6 -56 50 0 50
0 -5 69 c-8 106 -92 267 -168 321 l-28 20 -30 -37z"/>
</g>
</svg>
