<?xml version="1.0" standalone="no"?>
<!DOCTYPE svg PUBLIC "-//W3C//DTD SVG 20010904//EN"
 "http://www.w3.org/TR/2001/REC-SVG-20010904/DTD/svg10.dtd">
<svg version="1.0" xmlns="http://www.w3.org/2000/svg"
 width="145.000000pt" height="135.000000pt" viewBox="0 0 145.000000 135.000000"
 preserveAspectRatio="xMidYMid meet">

<g transform="translate(0.000000,135.000000) scale(0.100000,-0.100000)"
fill="#000000" stroke="none">
<path d="M205 1157 c-3 -7 -4 -136 -3 -287 l3 -275 233 -3 232 -2 0 290 0 290
-230 0 c-177 0 -232 -3 -235 -13z m365 -277 l0 -180 -130 0 -130 0 0 180 0
180 130 0 130 0 0 -180z"/>
<path d="M780 985 l0 -185 233 2 232 3 0 180 0 180 -232 3 -233 2 0 -185z
m360 0 l0 -75 -130 0 -130 0 0 75 0 75 130 0 130 0 0 -75z"/>
<path d="M780 415 l0 -285 235 0 235 0 -2 283 -3 282 -232 3 -233 2 0 -285z
m360 -5 l0 -180 -130 0 -130 0 0 180 0 180 130 0 130 0 0 -180z"/>
<path d="M200 310 l0 -180 235 0 235 0 0 180 0 180 -235 0 -235 0 0 -180z
m370 0 l0 -80 -130 0 -130 0 0 73 c0 41 3 77 7 80 3 4 62 7 130 7 l123 0 0
-80z"/>
</g>

<style>
    path {
        fill: white;
        stroke: white;
    }
</style>
</svg>
