<?xml version="1.0" standalone="no"?>
<!DOCTYPE svg PUBLIC "-//W3C//DTD SVG 20010904//EN"
 "http://www.w3.org/TR/2001/REC-SVG-20010904/DTD/svg10.dtd">
<svg version="1.0" xmlns="http://www.w3.org/2000/svg"
 width="466.000000pt" height="456.000000pt" viewBox="0 0 466.000000 456.000000"
 preserveAspectRatio="xMidYMid meet">

<g transform="translate(0.000000,456.000000) scale(0.100000,-0.100000)"
fill="#000000" stroke="none">
<path d="M2145 3944 c-713 -76 -1276 -592 -1417 -1296 -32 -162 -32 -434 0
-596 131 -655 619 -1143 1274 -1274 162 -32 434 -32 596 0 655 131 1143 619
1274 1274 32 162 32 434 0 596 -130 652 -622 1145 -1269 1272 -105 21 -362 34
-458 24z m370 -199 c690 -112 1195 -698 1195 -1388 0 -327 -109 -645 -303
-880 l-39 -48 -29 86 c-16 47 -41 109 -55 138 -108 213 -315 412 -527 508
l-72 32 85 86 c60 60 97 107 122 156 64 127 73 164 72 320 0 131 -2 145 -31
221 -75 199 -217 340 -415 412 -67 24 -86 27 -218 27 -132 0 -151 -3 -218 -27
-99 -36 -172 -81 -247 -153 -77 -74 -128 -153 -168 -259 -29 -76 -31 -90 -31
-221 -1 -156 8 -193 72 -320 25 -49 62 -96 122 -157 l86 -87 -68 -30 c-217
-95 -422 -292 -532 -508 -14 -29 -39 -91 -55 -138 l-29 -86 -39 48 c-277 335
-374 831 -249 1263 153 527 587 911 1136 1005 104 18 326 18 435 0z m-61 -534
c340 -118 441 -547 188 -800 -95 -96 -205 -141 -342 -141 -191 0 -355 103
-435 272 -140 296 35 628 365 692 47 9 165 -3 224 -23z m-6 -1151 c191 -31
343 -110 487 -255 146 -145 242 -323 261 -486 l6 -55 -68 -51 c-498 -365
-1170 -365 -1668 0 l-68 51 6 52 c10 83 59 217 112 306 140 233 384 397 654
441 52 9 217 6 278 -3z"/>
</g>
</svg>
